<svg width="48" height="48" viewBox="0 0 48 48" fill="none" xmlns="http://www.w3.org/2000/svg">
<path fill-rule="evenodd" clip-rule="evenodd" d="M12.1172 18.781L28.1084 39.8499L32.8015 37.509L47.4031 48L30.8032 26.0643L27.5869 29.5326L12.1172 18.781Z" fill="#FF3233"/>
<path fill-rule="evenodd" clip-rule="evenodd" d="M21.4523 0C32.9677 0 42.3031 9.31892 42.3031 20.8131C42.3031 24.9263 41.1072 28.7609 39.0447 31.9889L32.3282 23.8947C32.6064 22.9151 32.7548 21.8817 32.7548 20.8131C32.7548 14.5819 27.6936 9.53053 21.4523 9.53053C15.2102 9.53053 10.1499 14.5819 10.1499 20.8131C10.1499 26.5619 14.4577 31.3073 20.0268 32.0074L26.5825 40.9913C24.9413 41.4057 23.2224 41.627 21.4523 41.627C9.93699 41.627 0.601562 32.3081 0.601562 20.8131C0.601562 9.31804 9.93699 0 21.4523 0Z" fill="#124CA4"/>
</svg>
